<?xml version="1.0" encoding="UTF-8"?>
<svg xmlns="http://www.w3.org/2000/svg" xmlns:xlink="http://www.w3.org/1999/xlink" width="239.488pt" height="77.6622pt" viewBox="0 0 239.488 77.6622" version="1.1">
<defs>
<clipPath id="clip1">
  <path d="M 189 56 L 239.488281 56 L 239.488281 72 L 189 72 Z M 189 56 "/>
</clipPath>
<clipPath id="clip2">
  <path d="M 0 50 L 61 50 L 61 77.664062 L 0 77.664062 Z M 0 50 "/>
</clipPath>
</defs>
<g id="surface1">
<path style=" stroke:none;fill-rule:nonzero;fill:rgb(95.410156%,40.351868%,9.176636%);fill-opacity:1;" d="M 56.691406 28.347656 L 85.039062 28.347656 L 85.039062 0 L 56.691406 0 Z M 56.691406 28.347656 "/>
<path style=" stroke:none;fill-rule:nonzero;fill:rgb(12.626648%,33.805847%,68.193054%);fill-opacity:1;" d="M 0 28.347656 L 56.691406 28.347656 L 56.691406 0 L 0 0 Z M 0 28.347656 "/>
<path style=" stroke:none;fill-rule:nonzero;fill:rgb(12.626648%,33.805847%,68.193054%);fill-opacity:1;" d="M 103.5 71.484375 L 108.464844 71.484375 L 108.464844 64.941406 C 108.464844 64.226562 108.550781 63.566406 108.753906 62.992188 C 109.183594 61.726562 110.128906 60.867188 111.679688 60.867188 C 112.769531 60.867188 113.316406 61.441406 113.316406 62.816406 L 113.316406 71.484375 L 118.28125 71.484375 L 118.28125 61.898438 C 118.28125 57.738281 115.957031 56.363281 112.972656 56.363281 C 110.359375 56.363281 108.953125 57.769531 108.265625 58.917969 L 108.207031 58.917969 C 108.207031 58.917969 108.265625 58.484375 108.265625 58 L 108.265625 56.707031 L 103.5 56.707031 Z M 91.304688 66.808594 C 91.304688 65.574219 93.113281 65.113281 94.691406 65.113281 L 95.148438 65.113281 L 95.148438 65.429688 C 95.148438 66.636719 94.003906 68.042969 92.710938 68.042969 C 91.734375 68.042969 91.304688 67.496094 91.304688 66.808594 M 86.3125 67.066406 C 86.3125 69.992188 88.578125 71.828125 91.335938 71.828125 C 94.433594 71.828125 95.523438 69.675781 95.523438 69.675781 L 95.582031 69.675781 C 95.582031 69.675781 95.523438 70.109375 95.523438 70.59375 L 95.523438 71.484375 L 100.058594 71.484375 L 100.058594 62.386719 C 100.058594 58.628906 97.5625 56.363281 93.398438 56.363281 C 89.753906 56.363281 87.203125 58.285156 87.203125 58.285156 L 88.921875 61.785156 C 88.921875 61.785156 91.046875 60.378906 92.914062 60.378906 C 94.144531 60.378906 95.09375 60.78125 95.09375 62.015625 L 95.09375 62.273438 L 94.890625 62.273438 C 92.597656 62.273438 86.3125 62.761719 86.3125 67.066406 M 74.515625 71.484375 L 80.570312 71.484375 L 85.59375 56.707031 L 80.34375 56.707031 L 78.078125 64.570312 C 77.789062 65.546875 77.53125 67.125 77.53125 67.125 L 77.472656 67.125 C 77.472656 67.125 77.214844 65.515625 76.929688 64.570312 L 74.632812 56.707031 L 69.410156 56.707031 Z M 74.515625 71.484375 "/>
<path style=" stroke:none;fill-rule:nonzero;fill:rgb(12.626648%,33.805847%,68.193054%);fill-opacity:1;" d="M 181.804688 71.484375 L 186.785156 71.484375 L 186.785156 50.964844 L 181.804688 50.964844 Z M 181.804688 71.484375 "/>
<g clip-path="url(#clip1)" clip-rule="nonzero">
<path style=" stroke:none;fill-rule:nonzero;fill:rgb(12.626648%,33.805847%,68.193054%);fill-opacity:1;" d="M 224.710938 71.484375 L 229.671875 71.484375 L 229.671875 64.941406 C 229.671875 64.226562 229.757812 63.566406 229.960938 62.992188 C 230.390625 61.726562 231.339844 60.867188 232.886719 60.867188 C 233.976562 60.867188 234.523438 61.441406 234.523438 62.816406 L 234.523438 71.484375 L 239.488281 71.484375 L 239.488281 61.898438 C 239.488281 57.738281 237.164062 56.363281 234.179688 56.363281 C 231.566406 56.363281 230.160156 57.769531 229.472656 58.917969 L 229.414062 58.917969 C 229.414062 58.917969 229.472656 58.484375 229.472656 58 L 229.472656 56.707031 L 224.710938 56.707031 Z M 206.398438 66.292969 C 206.398438 70.453125 208.726562 71.828125 211.652344 71.828125 C 213.632812 71.828125 215.46875 70.855469 216.273438 69.277344 L 216.328125 69.277344 C 216.328125 69.277344 216.273438 69.707031 216.273438 70.195312 L 216.273438 71.484375 L 221.035156 71.484375 L 221.035156 56.707031 L 216.070312 56.707031 L 216.070312 63.25 C 216.070312 65.460938 215.066406 67.324219 212.941406 67.324219 C 211.910156 67.324219 211.363281 66.75 211.363281 65.375 L 211.363281 56.707031 L 206.398438 56.707031 Z M 194.578125 62.214844 C 194.835938 61.125 195.523438 60.09375 196.960938 60.09375 C 198.136719 60.09375 198.910156 61.097656 198.910156 62.214844 Z M 189.382812 64.082031 C 189.382812 68.011719 192.222656 71.828125 197.503906 71.828125 C 201.4375 71.828125 203.816406 69.675781 203.816406 69.675781 L 201.980469 66.207031 C 201.980469 66.207031 200.03125 67.695312 197.90625 67.695312 C 196.328125 67.695312 194.835938 66.863281 194.460938 65.058594 L 203.789062 65.058594 C 203.789062 65.058594 203.902344 63.996094 203.902344 63.507812 C 203.902344 59.402344 201.4375 56.363281 197.074219 56.363281 C 192.308594 56.363281 189.382812 59.75 189.382812 64.082031 "/>
</g>
<path style=" stroke:none;fill-rule:nonzero;fill:rgb(12.626648%,33.805847%,68.193054%);fill-opacity:1;" d="M 162.757812 71.484375 L 167.722656 71.484375 L 167.722656 65.890625 C 167.722656 65.085938 167.808594 64.425781 167.984375 63.882812 C 168.699219 61.671875 170.621094 61.296875 171.800781 61.296875 C 172.402344 61.296875 172.800781 61.382812 172.800781 61.382812 L 172.800781 56.503906 C 172.800781 56.503906 172.515625 56.449219 172.230469 56.449219 C 170.019531 56.449219 168.15625 58.113281 167.523438 60.121094 L 167.464844 60.121094 C 167.464844 60.121094 167.523438 59.691406 167.523438 59.203125 L 167.523438 56.707031 L 162.757812 56.707031 Z M 150.734375 62.214844 C 150.992188 61.125 151.683594 60.09375 153.117188 60.09375 C 154.292969 60.09375 155.070312 61.097656 155.070312 62.214844 Z M 145.542969 64.082031 C 145.542969 68.011719 148.382812 71.828125 153.664062 71.828125 C 157.59375 71.828125 159.976562 69.675781 159.976562 69.675781 L 158.140625 66.207031 C 158.140625 66.207031 156.1875 67.695312 154.066406 67.695312 C 152.488281 67.695312 150.992188 66.863281 150.621094 65.058594 L 159.949219 65.058594 C 159.949219 65.058594 160.0625 63.996094 160.0625 63.507812 C 160.0625 59.402344 157.59375 56.363281 153.234375 56.363281 C 148.46875 56.363281 145.542969 59.75 145.542969 64.082031 M 132.3125 64.082031 C 132.3125 61.8125 133.660156 60.550781 135.210938 60.550781 C 137.160156 60.550781 138.109375 62.300781 138.109375 64.082031 C 138.109375 66.636719 136.703125 67.726562 135.210938 67.726562 C 133.488281 67.726562 132.3125 66.292969 132.3125 64.082031 M 127.320312 64.082031 C 127.320312 68.671875 129.960938 71.828125 133.976562 71.828125 C 137.019531 71.828125 138.253906 69.675781 138.253906 69.675781 L 138.308594 69.675781 C 138.308594 69.675781 138.28125 70.050781 138.28125 70.507812 L 138.28125 71.484375 L 142.929688 71.484375 L 142.929688 50.964844 L 137.964844 50.964844 L 137.964844 56.878906 C 137.964844 57.25 137.996094 57.539062 137.996094 57.539062 L 137.9375 57.539062 C 137.9375 57.539062 137.046875 56.363281 134.0625 56.363281 C 130.132812 56.363281 127.320312 59.402344 127.320312 64.082031 "/>
<g clip-path="url(#clip2)" clip-rule="nonzero">
<path style=" stroke:none;fill-rule:nonzero;fill:rgb(12.626648%,33.805847%,68.193054%);fill-opacity:1;" d="M 0 71.488281 L 2 71.488281 L 2 65.261719 C 2 64.316406 2.117188 63.320312 2.410156 62.378906 C 3.058594 60.203125 4.613281 58.558594 6.703125 58.558594 C 7.082031 58.558594 7.4375 58.617188 7.4375 58.617188 L 7.4375 56.644531 C 7.4375 56.644531 7.054688 56.558594 6.644531 56.558594 C 4.320312 56.558594 2.675781 58.261719 1.96875 60.496094 L 1.910156 60.496094 C 1.910156 60.496094 1.96875 59.96875 1.96875 59.320312 L 1.96875 56.707031 L 0 56.707031 Z M 9.199219 64.023438 C 9.199219 68.492188 12.695312 71.84375 17.019531 71.84375 C 21.339844 71.84375 24.835938 68.492188 24.835938 64.023438 C 24.835938 59.644531 21.339844 56.351562 17.019531 56.351562 C 12.695312 56.351562 9.199219 59.644531 9.199219 64.023438 M 11.257812 64.023438 C 11.257812 60.671875 13.84375 58.175781 17.019531 58.175781 C 20.191406 58.175781 22.777344 60.671875 22.777344 64.023438 C 22.777344 67.464844 20.191406 70.050781 17.019531 70.050781 C 13.84375 70.050781 11.257812 67.464844 11.257812 64.023438 M 26.363281 76.78125 C 26.363281 76.78125 27.421875 77.660156 28.953125 77.660156 C 30.921875 77.660156 32.449219 76.457031 33.210938 74.574219 L 40.503906 56.707031 L 38.328125 56.707031 L 34.066406 67.492188 C 33.769531 68.226562 33.566406 69.050781 33.566406 69.050781 L 33.507812 69.050781 C 33.507812 69.050781 33.269531 68.226562 32.976562 67.492188 L 28.628906 56.707031 L 26.421875 56.707031 L 32.59375 71.375 L 31.683594 73.460938 C 31.097656 74.8125 30.1875 75.867188 28.890625 75.867188 C 27.953125 75.867188 27.128906 75.195312 27.128906 75.195312 Z M 42.03125 67.464844 C 42.03125 70.402344 44.585938 71.84375 47.054688 71.84375 C 50.757812 71.84375 51.996094 68.640625 51.996094 68.640625 L 52.054688 68.640625 C 52.054688 68.640625 51.996094 69.140625 51.996094 69.875 L 51.996094 71.488281 L 53.90625 71.488281 L 53.90625 62.027344 C 53.90625 58.320312 51.9375 56.351562 48.378906 56.351562 C 45.058594 56.351562 43.117188 58.027344 43.117188 58.027344 L 44.058594 59.558594 C 44.058594 59.558594 45.792969 58.144531 48.230469 58.144531 C 50.347656 58.144531 51.90625 59.117188 51.90625 61.96875 L 51.90625 62.347656 L 51.082031 62.347656 C 48.523438 62.347656 42.03125 62.464844 42.03125 67.464844 M 44.089844 67.347656 C 44.089844 64.082031 48.730469 63.992188 51.054688 63.992188 L 51.90625 63.992188 L 51.90625 64.640625 C 51.90625 67.199219 50.203125 70.136719 47.378906 70.136719 C 45.175781 70.136719 44.089844 68.726562 44.089844 67.347656 M 60.371094 50.828125 L 58.371094 50.828125 L 58.371094 71.488281 L 60.371094 71.488281 Z M 60.371094 50.828125 "/>
</g>
<path style=" stroke:none;fill-rule:nonzero;fill:rgb(100%,100%,100%);fill-opacity:1;" d="M 78.136719 20.476562 L 63.59375 20.476562 L 63.59375 18.539062 L 78.136719 18.539062 Z M 78.136719 20.476562 "/>
<path style=" stroke:none;fill-rule:nonzero;fill:rgb(100%,100%,100%);fill-opacity:1;" d="M 65.53125 15.144531 L 63.59375 17.082031 L 61.652344 15.144531 L 63.59375 13.203125 Z M 65.53125 15.144531 "/>
<path style=" stroke:none;fill-rule:nonzero;fill:rgb(100%,100%,100%);fill-opacity:1;" d="M 70.382812 15.144531 L 68.441406 17.082031 L 66.503906 15.144531 L 68.441406 13.203125 Z M 70.382812 15.144531 "/>
<path style=" stroke:none;fill-rule:nonzero;fill:rgb(100%,100%,100%);fill-opacity:1;" d="M 75.230469 15.144531 L 73.292969 17.082031 L 71.351562 15.144531 L 73.292969 13.203125 Z M 75.230469 15.144531 "/>
<path style=" stroke:none;fill-rule:nonzero;fill:rgb(100%,100%,100%);fill-opacity:1;" d="M 73.289062 10.292969 L 70.867188 12.71875 L 68.441406 10.292969 L 70.867188 7.871094 Z M 73.289062 10.292969 "/>
<path style=" stroke:none;fill-rule:nonzero;fill:rgb(100%,100%,100%);fill-opacity:1;" d="M 80.078125 15.144531 L 78.140625 17.082031 L 76.199219 15.144531 L 78.140625 13.203125 Z M 80.078125 15.144531 "/>
</g>
</svg>
